# xmcd
#
# Track frame offsets: 
#        150
#        15469
#        28472
#        44439
#        59570
#        73478
#        86233
#        104707
#        118810
#        132889
#        149301
#        167733
#        180662
#        194594
#        209892
#        223124
#        238373
#        254702
#        269638
#        284918
#        305075
#        319983
#        334497
#
# Disc length: 4651 seconds
#
# Revision: 0
# Processed by: cddbd v1.5.2PL0 Copyright (c) Steve Scherf et al.
# Submitted via: ExactAudioCopyFreeDBPlugin 1.0
#
DISCID=a3122917
DTITLE=Cristiano Araújo - Ao Vivo Em Goiânia
DYEAR=2013
DGENRE=Sertanejo 
TTITLE0=É Fato
TTITLE1=Eu Sou Seu Meu Bem
TTITLE2=Me Apego
TTITLE3=Efeitos
TTITLE4=Além Da Lenda
TTITLE5=Fazendo Bará Berê
TTITLE6=Relaxa
TTITLE7=Delírios de Amar
TTITLE8=Assim Você Mata O Papai
TTITLE9=Não Sei Me Controlar
TTITLE10=Você Mudou
TTITLE11=Tá Mais Capetinha
TTITLE12=Frases De Fogo
TTITLE13=Resgate
TTITLE14=Mente Pra Mim
TTITLE15=Quando Tem Que Acontecer
TTITLE16=Na Minha Mente
TTITLE17=Teu Coração Ainda É Meu
TTITLE18=Meus Sentimentos
TTITLE19=Essa Noite Foi Maravilhosa
TTITLE20=O Tanto Que Eu Te Amo
TTITLE21=Deste Lado Ou Do Outro
TTITLE22=Deixa Eu Te Amar
EXTD=
EXTT0=
EXTT1=
EXTT2=
EXTT3=
EXTT4=
EXTT5=
EXTT6=
EXTT7=
EXTT8=
EXTT9=
EXTT10=
EXTT11=
EXTT12=
EXTT13=
EXTT14=
EXTT15=
EXTT16=
EXTT17=
EXTT18=
EXTT19=
EXTT20=
EXTT21=
EXTT22=
PLAYORDER=
